# xmcd
#
# Track frame offsets:
#	150
#	12062
#	24097
#	36235
#	50214
#	66052
#	82721
#	104639
#	119822
#	130315
#	147826
#	160290
#	177743
#	194135
#	206754
#	220480
#	233521
#	248681
#	260438
#	277436
#	294271
#	311830
#
# Disc length: 4315 seconds
# Revision: 0
# Processed by: cddbd v1.5.2PL0 Copyright (c) Steve Scherf et al.
# Submitted via: dBpowerAMP V12.0
#
DISCID=5810d916
DTITLE=Jack Derwin - Bent
DYEAR=2016
DGENRE=Blues
TTITLE0=Get Bent
TTITLE1=Give Me Back My Train
TTITLE2=What A Fool I've Been
TTITLE3=Bone House Blues
TTITLE4=Bend It
TTITLE5=Driftin n Driftin
TTITLE6=The Sensitive Kind
TTITLE7=Blues For Me
TTITLE8=Big Eddy
TTITLE9=Don't Send Me Home In Wood
TTITLE10=Leave My Troubles
TTITLE11=Hong Kong Bar
TTITLE12=Where Are We Travelling To
TTITLE13=Take Me Back Home Again
TTITLE14=Old Man At The Station
TTITLE15=Whisper All Your Troubles
TTITLE16=One Night
TTITLE17=Open Up Your Eyes
TTITLE18=Long Time Coming
TTITLE19=Let Me In
TTITLE20=Twenty Years Younger
TTITLE21=You Make My Day
EXTD=
EXTT0=
EXTT1=
EXTT2=
EXTT3=
EXTT4=
EXTT5=
EXTT6=
EXTT7=
EXTT8=
EXTT9=
EXTT10=
EXTT11=
EXTT12=
EXTT13=
EXTT14=
EXTT15=
EXTT16=
EXTT17=
EXTT18=
EXTT19=
EXTT20=
EXTT21=
PLAYORDER=
